<?xml version="1.0" standalone="no"?>
<!DOCTYPE svg PUBLIC "-//W3C//DTD SVG 20010904//EN"
 "http://www.w3.org/TR/2001/REC-SVG-20010904/DTD/svg10.dtd">
<svg version="1.0" xmlns="http://www.w3.org/2000/svg"
 width="500.000000pt" height="500.000000pt" viewBox="0 0 500.000000 500.000000"
 preserveAspectRatio="xMidYMid meet">
<metadata>
Created by potrace 1.14, written by Peter Selinger 2001-2017
</metadata>
<g transform="translate(0.000000,500.000000) scale(0.100000,-0.100000)"
fill="#000000" stroke="none">
<path d="M2381 4034 c-210 -56 -405 -275 -501 -562 -33 -98 -70 -272 -70 -326
0 -33 -4 -38 -38 -51 -76 -31 -72 13 -72 -795 0 -783 -1 -762 55 -788 37 -17
1453 -17 1490 0 56 26 55 5 55 787 0 523 -3 727 -12 745 -6 14 -31 35 -55 47
-39 19 -43 24 -43 56 0 54 -38 228 -71 328 -135 403 -444 638 -738 559z m264
-159 c107 -51 223 -180 292 -324 54 -115 113 -327 113 -407 l0 -24 -551 0
-551 0 6 58 c11 90 51 239 88 327 81 190 211 334 351 386 72 27 174 20 252
-16z m515 -1575 l0 -660 -660 0 -660 0 0 660 0 660 660 0 660 0 0 -660z"/>
<path d="M2136 2513 c-4 -14 -20 -178 -21 -218 0 -17 65 -24 93 -9 46 24 87
18 116 -17 35 -41 34 -83 -3 -120 -43 -43 -106 -34 -130 18 -9 20 -17 24 -49
21 -33 -3 -37 -6 -34 -27 9 -61 75 -105 157 -105 91 0 154 55 163 142 11 118
-97 204 -195 156 l-38 -19 5 55 5 55 100 5 100 5 0 35 0 35 -132 3 c-119 2
-132 1 -137 -15z"/>
<path d="M2630 2514 c-46 -20 -77 -50 -103 -99 -17 -32 -22 -57 -22 -125 0
-75 3 -90 28 -133 48 -81 132 -118 225 -99 100 21 152 84 152 187 l0 55 -95 0
-95 0 0 -30 c0 -30 1 -30 55 -30 60 0 65 -7 43 -55 -22 -49 -102 -70 -158 -42
-47 24 -70 73 -70 151 0 60 4 77 25 108 45 67 132 72 185 12 24 -28 36 -34 70
-34 38 0 41 2 35 23 -13 40 -57 89 -99 108 -49 22 -128 24 -176 3z"/>
<path d="M803 3501 c-293 -221 -502 -552 -574 -910 -11 -53 -22 -159 -26 -236
-17 -414 142 -822 436 -1115 68 -68 218 -190 234 -190 3 0 24 27 46 59 l40 59
-72 55 c-469 354 -653 972 -457 1532 83 235 256 470 461 625 l78 58 -39 61
c-22 34 -42 61 -44 61 -3 0 -40 -27 -83 -59z"/>
<path d="M4086 3495 c-20 -30 -36 -59 -36 -63 0 -5 31 -32 68 -60 92 -68 238
-223 302 -319 98 -149 166 -315 207 -504 25 -118 24 -380 -1 -504 -70 -336
-253 -629 -518 -826 l-77 -57 40 -62 40 -62 27 18 c127 82 285 235 379 367
300 424 365 959 172 1440 -73 184 -174 336 -327 490 -73 74 -219 197 -235 197
-2 0 -21 -25 -41 -55z"/>
<path d="M1105 3103 c-117 -85 -245 -241 -309 -376 -197 -418 -75 -935 286
-1213 31 -24 61 -44 66 -44 9 0 72 95 72 110 0 4 -12 16 -27 26 -49 31 -144
127 -188 189 -265 373 -201 878 147 1166 35 28 67 55 72 60 6 5 -6 31 -27 64
-21 30 -38 55 -40 55 -1 0 -24 -17 -52 -37z"/>
<path d="M3812 3079 c-18 -28 -32 -54 -30 -58 2 -5 31 -32 66 -60 433 -359
410 -1019 -48 -1362 l-35 -26 38 -57 c24 -36 42 -54 50 -50 7 4 39 29 72 55
425 337 499 973 161 1395 -72 90 -210 215 -236 214 -3 0 -20 -23 -38 -51z"/>
<path d="M1331 2723 c-88 -89 -132 -166 -161 -279 -36 -141 -18 -294 52 -427
33 -63 179 -222 197 -215 6 1 23 23 39 48 l28 44 -61 58 c-206 192 -205 505 1
697 l62 58 -30 47 c-17 25 -35 46 -40 46 -6 0 -45 -35 -87 -77z"/>
<path d="M3554 2753 l-30 -47 61 -58 c206 -192 205 -505 -1 -697 l-62 -58 30
-47 c17 -25 35 -46 40 -46 23 0 165 158 196 217 42 80 72 198 72 283 0 85 -30
203 -72 283 -30 58 -173 217 -194 217 -5 0 -23 -21 -40 -47z"/>
</g>
</svg>
